<?xml version="1.0"?>
<!-- Generated by SVGo and Plotinum VG -->
<svg width="1728pt" height="864pt" viewBox="0 0 1728 864"
	xmlns="http://www.w3.org/2000/svg"
	xmlns:xlink="http://www.w3.org/1999/xlink">
<g transform="scale(1, -1) translate(0, -864)">
<path d="M0,0L1728,0L1728,864L0,864Z" style="fill:#FFFFFF" />
<g transform="rotate(45)">
<text x="4.0519" y="-0.42188" transform="scale(1, -1)"
	style="font-family:Times;font-weight:normal;font-style:normal;font-size:10px">4.8.0-0.ci-2021-03-02-075409</text>
</g>
<g transform="rotate(45)">
<text x="29.089" y="24.244" transform="scale(1, -1)"
	style="font-family:Times;font-weight:normal;font-style:normal;font-size:10px">4.8.0-0.ci-2021-03-02-114536</text>
</g>
<g transform="rotate(45)">
<text x="53.383" y="48.91" transform="scale(1, -1)"
	style="font-family:Times;font-weight:normal;font-style:normal;font-size:10px">4.8.0-0.ci-2021-03-02-135138</text>
</g>
<g transform="rotate(45)">
<text x="78.049" y="73.575" transform="scale(1, -1)"
	style="font-family:Times;font-weight:normal;font-style:normal;font-size:10px">4.8.0-0.ci-2021-03-02-151447</text>
</g>
<g transform="rotate(45)">
<text x="102.71" y="98.241" transform="scale(1, -1)"
	style="font-family:Times;font-weight:normal;font-style:normal;font-size:10px">4.8.0-0.ci-2021-03-02-155709</text>
</g>
<g transform="rotate(45)">
<text x="127.38" y="122.91" transform="scale(1, -1)"
	style="font-family:Times;font-weight:normal;font-style:normal;font-size:10px">4.8.0-0.ci-2021-03-02-175635</text>
</g>
<g transform="rotate(45)">
<text x="152.05" y="147.57" transform="scale(1, -1)"
	style="font-family:Times;font-weight:normal;font-style:normal;font-size:10px">4.8.0-0.ci-2021-03-02-182635</text>
</g>
<g transform="rotate(45)">
<text x="176.71" y="172.24" transform="scale(1, -1)"
	style="font-family:Times;font-weight:normal;font-style:normal;font-size:10px">4.8.0-0.ci-2021-03-02-205242</text>
</g>
<g transform="rotate(45)">
<text x="201.38" y="196.9" transform="scale(1, -1)"
	style="font-family:Times;font-weight:normal;font-style:normal;font-size:10px">4.8.0-0.ci-2021-03-02-212242</text>
</g>
<g transform="rotate(45)">
<text x="226.04" y="221.57" transform="scale(1, -1)"
	style="font-family:Times;font-weight:normal;font-style:normal;font-size:10px">4.8.0-0.ci-2021-03-02-230907</text>
</g>
<g transform="rotate(45)">
<text x="250.71" y="246.24" transform="scale(1, -1)"
	style="font-family:Times;font-weight:normal;font-style:normal;font-size:10px">4.8.0-0.ci-2021-03-02-234012</text>
</g>
<g transform="rotate(45)">
<text x="275.37" y="270.9" transform="scale(1, -1)"
	style="font-family:Times;font-weight:normal;font-style:normal;font-size:10px">4.8.0-0.ci-2021-03-03-014323</text>
</g>
<g transform="rotate(45)">
<text x="300.04" y="295.57" transform="scale(1, -1)"
	style="font-family:Times;font-weight:normal;font-style:normal;font-size:10px">4.8.0-0.ci-2021-03-03-022008</text>
</g>
<g transform="rotate(45)">
<text x="324.71" y="320.23" transform="scale(1, -1)"
	style="font-family:Times;font-weight:normal;font-style:normal;font-size:10px">4.8.0-0.ci-2021-03-03-035337</text>
</g>
<g transform="rotate(45)">
<text x="349.37" y="344.9" transform="scale(1, -1)"
	style="font-family:Times;font-weight:normal;font-style:normal;font-size:10px">4.8.0-0.ci-2021-03-03-050657</text>
</g>
<g transform="rotate(45)">
<text x="374.04" y="369.56" transform="scale(1, -1)"
	style="font-family:Times;font-weight:normal;font-style:normal;font-size:10px">4.8.0-0.ci-2021-03-03-063445</text>
</g>
<g transform="rotate(45)">
<text x="398.7" y="394.23" transform="scale(1, -1)"
	style="font-family:Times;font-weight:normal;font-style:normal;font-size:10px">4.8.0-0.ci-2021-03-03-081957</text>
</g>
<g transform="rotate(45)">
<text x="423.37" y="418.9" transform="scale(1, -1)"
	style="font-family:Times;font-weight:normal;font-style:normal;font-size:10px">4.8.0-0.ci-2021-03-03-090708</text>
</g>
<g transform="rotate(45)">
<text x="448.41" y="443.56" transform="scale(1, -1)"
	style="font-family:Times;font-weight:normal;font-style:normal;font-size:10px">4.8.0-0.ci-2021-03-03-110228</text>
</g>
<g transform="rotate(45)">
<text x="472.7" y="468.23" transform="scale(1, -1)"
	style="font-family:Times;font-weight:normal;font-style:normal;font-size:10px">4.8.0-0.ci-2021-03-03-121745</text>
</g>
<g transform="rotate(45)">
<text x="497.37" y="492.89" transform="scale(1, -1)"
	style="font-family:Times;font-weight:normal;font-style:normal;font-size:10px">4.8.0-0.ci-2021-03-03-135407</text>
</g>
<g transform="rotate(45)">
<text x="522.03" y="517.56" transform="scale(1, -1)"
	style="font-family:Times;font-weight:normal;font-style:normal;font-size:10px">4.8.0-0.ci-2021-03-03-145843</text>
</g>
<g transform="rotate(45)">
<text x="546.7" y="542.22" transform="scale(1, -1)"
	style="font-family:Times;font-weight:normal;font-style:normal;font-size:10px">4.8.0-0.ci-2021-03-03-163609</text>
</g>
<g transform="rotate(45)">
<text x="571.36" y="566.89" transform="scale(1, -1)"
	style="font-family:Times;font-weight:normal;font-style:normal;font-size:10px">4.8.0-0.ci-2021-03-03-173416</text>
</g>
<g transform="rotate(45)">
<text x="596.03" y="591.56" transform="scale(1, -1)"
	style="font-family:Times;font-weight:normal;font-style:normal;font-size:10px">4.8.0-0.ci-2021-03-03-193849</text>
</g>
<g transform="rotate(45)">
<text x="620.7" y="616.22" transform="scale(1, -1)"
	style="font-family:Times;font-weight:normal;font-style:normal;font-size:10px">4.8.0-0.ci-2021-03-03-210522</text>
</g>
<g transform="rotate(45)">
<text x="645.36" y="640.89" transform="scale(1, -1)"
	style="font-family:Times;font-weight:normal;font-style:normal;font-size:10px">4.8.0-0.ci-2021-03-03-221509</text>
</g>
<g transform="rotate(45)">
<text x="670.03" y="665.55" transform="scale(1, -1)"
	style="font-family:Times;font-weight:normal;font-style:normal;font-size:10px">4.8.0-0.ci-2021-03-03-234526</text>
</g>
<g transform="rotate(45)">
<text x="694.69" y="690.22" transform="scale(1, -1)"
	style="font-family:Times;font-weight:normal;font-style:normal;font-size:10px">4.8.0-0.ci-2021-03-04-005023</text>
</g>
<g transform="rotate(45)">
<text x="719.36" y="714.88" transform="scale(1, -1)"
	style="font-family:Times;font-weight:normal;font-style:normal;font-size:10px">4.8.0-0.ci-2021-03-04-025850</text>
</g>
<g transform="rotate(45)">
<text x="744.02" y="739.55" transform="scale(1, -1)"
	style="font-family:Times;font-weight:normal;font-style:normal;font-size:10px">4.8.0-0.ci-2021-03-04-033803</text>
</g>
<g transform="rotate(45)">
<text x="769.06" y="764.22" transform="scale(1, -1)"
	style="font-family:Times;font-weight:normal;font-style:normal;font-size:10px">4.8.0-0.ci-2021-03-04-051150</text>
</g>
<g transform="rotate(45)">
<text x="793.36" y="788.88" transform="scale(1, -1)"
	style="font-family:Times;font-weight:normal;font-style:normal;font-size:10px">4.8.0-0.ci-2021-03-04-084348</text>
</g>
<g transform="rotate(45)">
<text x="818.02" y="813.55" transform="scale(1, -1)"
	style="font-family:Times;font-weight:normal;font-style:normal;font-size:10px">4.8.0-0.ci-2021-03-04-093844</text>
</g>
<g transform="rotate(45)">
<text x="843.06" y="838.21" transform="scale(1, -1)"
	style="font-family:Times;font-weight:normal;font-style:normal;font-size:10px">4.8.0-0.ci-2021-03-04-110251</text>
</g>
<g transform="rotate(45)">
<text x="867.72" y="862.88" transform="scale(1, -1)"
	style="font-family:Times;font-weight:normal;font-style:normal;font-size:10px">4.8.0-0.ci-2021-03-04-115431</text>
</g>
<g transform="rotate(45)">
<text x="892.02" y="887.54" transform="scale(1, -1)"
	style="font-family:Times;font-weight:normal;font-style:normal;font-size:10px">4.8.0-0.ci-2021-03-04-131031</text>
</g>
<g transform="rotate(45)">
<text x="916.68" y="912.21" transform="scale(1, -1)"
	style="font-family:Times;font-weight:normal;font-style:normal;font-size:10px">4.8.0-0.ci-2021-03-04-140519</text>
</g>
<g transform="rotate(45)">
<text x="941.35" y="936.88" transform="scale(1, -1)"
	style="font-family:Times;font-weight:normal;font-style:normal;font-size:10px">4.8.0-0.ci-2021-03-04-151801</text>
</g>
<g transform="rotate(45)">
<text x="966.02" y="961.54" transform="scale(1, -1)"
	style="font-family:Times;font-weight:normal;font-style:normal;font-size:10px">4.8.0-0.ci-2021-03-04-161229</text>
</g>
<g transform="rotate(45)">
<text x="990.68" y="986.21" transform="scale(1, -1)"
	style="font-family:Times;font-weight:normal;font-style:normal;font-size:10px">4.8.0-0.ci-2021-03-04-175841</text>
</g>
<g transform="rotate(45)">
<text x="1015.3" y="1010.9" transform="scale(1, -1)"
	style="font-family:Times;font-weight:normal;font-style:normal;font-size:10px">4.8.0-0.ci-2021-03-04-184342</text>
</g>
<g transform="rotate(45)">
<text x="1040.4" y="1035.5" transform="scale(1, -1)"
	style="font-family:Times;font-weight:normal;font-style:normal;font-size:10px">4.8.0-0.ci-2021-03-04-210113</text>
</g>
<g transform="rotate(45)">
<text x="1065" y="1060.2" transform="scale(1, -1)"
	style="font-family:Times;font-weight:normal;font-style:normal;font-size:10px">4.8.0-0.ci-2021-03-04-213113</text>
</g>
<g transform="rotate(45)">
<text x="1089.3" y="1084.9" transform="scale(1, -1)"
	style="font-family:Times;font-weight:normal;font-style:normal;font-size:10px">4.8.0-0.ci-2021-03-04-235647</text>
</g>
<g transform="rotate(45)">
<text x="1114.4" y="1109.5" transform="scale(1, -1)"
	style="font-family:Times;font-weight:normal;font-style:normal;font-size:10px">4.8.0-0.ci-2021-03-05-011742</text>
</g>
<g transform="rotate(45)">
<text x="1138.7" y="1134.2" transform="scale(1, -1)"
	style="font-family:Times;font-weight:normal;font-style:normal;font-size:10px">4.8.0-0.ci-2021-03-05-024126</text>
</g>
<g transform="rotate(45)">
<text x="1163.3" y="1158.9" transform="scale(1, -1)"
	style="font-family:Times;font-weight:normal;font-style:normal;font-size:10px">4.8.0-0.ci-2021-03-05-034951</text>
</g>
<text x="0" y="-220.88" transform="scale(1, -1)"
	style="font-family:Times;font-weight:normal;font-style:normal;font-size:10px">2</text>
<text x="0" y="-426.48" transform="scale(1, -1)"
	style="font-family:Times;font-weight:normal;font-style:normal;font-size:10px">4</text>
<text x="0" y="-632.08" transform="scale(1, -1)"
	style="font-family:Times;font-weight:normal;font-style:normal;font-size:10px">6</text>
<text x="0" y="-837.69" transform="scale(1, -1)"
	style="font-family:Times;font-weight:normal;font-style:normal;font-size:10px">8</text>
<path d="M7.5,224.09L15.5,224.09" style="fill:none;stroke:#000000;stroke-width:0.5" />
<path d="M7.5,429.69L15.5,429.69" style="fill:none;stroke:#000000;stroke-width:0.5" />
<path d="M7.5,635.29L15.5,635.29" style="fill:none;stroke:#000000;stroke-width:0.5" />
<path d="M7.5,840.89L15.5,840.89" style="fill:none;stroke:#000000;stroke-width:0.5" />
<path d="M11.5,121.28L15.5,121.28" style="fill:none;stroke:#000000;stroke-width:0.5" />
<path d="M11.5,326.89L15.5,326.89" style="fill:none;stroke:#000000;stroke-width:0.5" />
<path d="M11.5,532.49L15.5,532.49" style="fill:none;stroke:#000000;stroke-width:0.5" />
<path d="M11.5,738.09L15.5,738.09" style="fill:none;stroke:#000000;stroke-width:0.5" />
<path d="M15.5,102.4L15.5,861.5" style="fill:none;stroke:#000000;stroke-width:0.5" />
<path d="M358.49,109.43L986.38,102.4" style="fill:none;stroke:#F15A60" />
<path d="M360.99,109.43A2.5,2.5 0 1 1 355.99,109.43A2.5,2.5 0 1 1 360.99,109.43Z" style="fill:none;stroke:#F15A60;stroke-width:0.5" />
<path d="M988.88,102.4A2.5,2.5 0 1 1 983.88,102.4A2.5,2.5 0 1 1 988.88,102.4Z" style="fill:none;stroke:#F15A60;stroke-width:0.5" />
<path d="M358.49,331.32L1579.4,380.24" style="fill:none;stroke:#F15A60" />
<path d="M360.99,331.32A2.5,2.5 0 1 1 355.99,331.32A2.5,2.5 0 1 1 360.99,331.32Z" style="fill:none;stroke:#F15A60;stroke-width:0.5" />
<path d="M1581.9,380.24A2.5,2.5 0 1 1 1576.9,380.24A2.5,2.5 0 1 1 1581.9,380.24Z" style="fill:none;stroke:#F15A60;stroke-width:0.5" />
<path d="M498.02,339.11L532.91,312.61L567.79,325.32L602.67,342.79L637.56,327.82L672.44,326.44L707.32,334.5L742.2,328.88L777.09,321.45L811.97,332.99L846.85,327.18L881.73,325.32L916.62,322.91L951.5,335.71L986.38,334.4L1021.3,330.59L1091,329.74L1125.9,340.05L1160.8,329.74L1195.7,334.11L1230.6,314.21L1265.4,332.94L1300.3,327.92L1335.2,339.64L1370.1,336.83L1405,339.94L1439.9,285.94L1474.7,320.42L1509.6,337.59L1544.5,324.83L1579.4,329.59L1614.3,331.77L1649.2,299.88L1684,343.63" style="fill:none;stroke:#F15A60" />
<path d="M500.52,339.11A2.5,2.5 0 1 1 495.52,339.11A2.5,2.5 0 1 1 500.52,339.11Z" style="fill:none;stroke:#F15A60;stroke-width:0.5" />
<path d="M535.41,312.61A2.5,2.5 0 1 1 530.41,312.61A2.5,2.5 0 1 1 535.41,312.61Z" style="fill:none;stroke:#F15A60;stroke-width:0.5" />
<path d="M570.29,325.32A2.5,2.5 0 1 1 565.29,325.32A2.5,2.5 0 1 1 570.29,325.32Z" style="fill:none;stroke:#F15A60;stroke-width:0.5" />
<path d="M605.17,342.79A2.5,2.5 0 1 1 600.17,342.79A2.5,2.5 0 1 1 605.17,342.79Z" style="fill:none;stroke:#F15A60;stroke-width:0.5" />
<path d="M640.06,327.82A2.5,2.5 0 1 1 635.06,327.82A2.5,2.5 0 1 1 640.06,327.82Z" style="fill:none;stroke:#F15A60;stroke-width:0.5" />
<path d="M674.94,326.44A2.5,2.5 0 1 1 669.94,326.44A2.5,2.5 0 1 1 674.94,326.44Z" style="fill:none;stroke:#F15A60;stroke-width:0.5" />
<path d="M709.82,334.5A2.5,2.5 0 1 1 704.82,334.5A2.5,2.5 0 1 1 709.82,334.5Z" style="fill:none;stroke:#F15A60;stroke-width:0.5" />
<path d="M744.7,328.88A2.5,2.5 0 1 1 739.7,328.88A2.5,2.5 0 1 1 744.7,328.88Z" style="fill:none;stroke:#F15A60;stroke-width:0.5" />
<path d="M779.59,321.45A2.5,2.5 0 1 1 774.59,321.45A2.5,2.5 0 1 1 779.59,321.45Z" style="fill:none;stroke:#F15A60;stroke-width:0.5" />
<path d="M814.47,332.99A2.5,2.5 0 1 1 809.47,332.99A2.5,2.5 0 1 1 814.47,332.99Z" style="fill:none;stroke:#F15A60;stroke-width:0.5" />
<path d="M849.35,327.18A2.5,2.5 0 1 1 844.35,327.18A2.5,2.5 0 1 1 849.35,327.18Z" style="fill:none;stroke:#F15A60;stroke-width:0.5" />
<path d="M884.23,325.32A2.5,2.5 0 1 1 879.23,325.32A2.5,2.5 0 1 1 884.23,325.32Z" style="fill:none;stroke:#F15A60;stroke-width:0.5" />
<path d="M919.12,322.91A2.5,2.5 0 1 1 914.12,322.91A2.5,2.5 0 1 1 919.12,322.91Z" style="fill:none;stroke:#F15A60;stroke-width:0.5" />
<path d="M954,335.71A2.5,2.5 0 1 1 949,335.71A2.5,2.5 0 1 1 954,335.71Z" style="fill:none;stroke:#F15A60;stroke-width:0.5" />
<path d="M988.88,334.4A2.5,2.5 0 1 1 983.88,334.4A2.5,2.5 0 1 1 988.88,334.4Z" style="fill:none;stroke:#F15A60;stroke-width:0.5" />
<path d="M1023.8,330.59A2.5,2.5 0 1 1 1018.8,330.59A2.5,2.5 0 1 1 1023.8,330.59Z" style="fill:none;stroke:#F15A60;stroke-width:0.5" />
<path d="M1093.5,329.74A2.5,2.5 0 1 1 1088.5,329.74A2.5,2.5 0 1 1 1093.5,329.74Z" style="fill:none;stroke:#F15A60;stroke-width:0.5" />
<path d="M1128.4,340.05A2.5,2.5 0 1 1 1123.4,340.05A2.5,2.5 0 1 1 1128.4,340.05Z" style="fill:none;stroke:#F15A60;stroke-width:0.5" />
<path d="M1163.3,329.74A2.5,2.5 0 1 1 1158.3,329.74A2.5,2.5 0 1 1 1163.3,329.74Z" style="fill:none;stroke:#F15A60;stroke-width:0.5" />
<path d="M1198.2,334.11A2.5,2.5 0 1 1 1193.2,334.11A2.5,2.5 0 1 1 1198.2,334.11Z" style="fill:none;stroke:#F15A60;stroke-width:0.5" />
<path d="M1233.1,314.21A2.5,2.5 0 1 1 1228.1,314.21A2.5,2.5 0 1 1 1233.1,314.21Z" style="fill:none;stroke:#F15A60;stroke-width:0.5" />
<path d="M1267.9,332.94A2.5,2.5 0 1 1 1262.9,332.94A2.5,2.5 0 1 1 1267.9,332.94Z" style="fill:none;stroke:#F15A60;stroke-width:0.5" />
<path d="M1302.8,327.92A2.5,2.5 0 1 1 1297.8,327.92A2.5,2.5 0 1 1 1302.8,327.92Z" style="fill:none;stroke:#F15A60;stroke-width:0.5" />
<path d="M1337.7,339.64A2.5,2.5 0 1 1 1332.7,339.64A2.5,2.5 0 1 1 1337.7,339.64Z" style="fill:none;stroke:#F15A60;stroke-width:0.5" />
<path d="M1372.6,336.83A2.5,2.5 0 1 1 1367.6,336.83A2.5,2.5 0 1 1 1372.6,336.83Z" style="fill:none;stroke:#F15A60;stroke-width:0.5" />
<path d="M1407.5,339.94A2.5,2.5 0 1 1 1402.5,339.94A2.5,2.5 0 1 1 1407.5,339.94Z" style="fill:none;stroke:#F15A60;stroke-width:0.5" />
<path d="M1442.4,285.94A2.5,2.5 0 1 1 1437.4,285.94A2.5,2.5 0 1 1 1442.4,285.94Z" style="fill:none;stroke:#F15A60;stroke-width:0.5" />
<path d="M1477.2,320.42A2.5,2.5 0 1 1 1472.2,320.42A2.5,2.5 0 1 1 1477.2,320.42Z" style="fill:none;stroke:#F15A60;stroke-width:0.5" />
<path d="M1512.1,337.59A2.5,2.5 0 1 1 1507.1,337.59A2.5,2.5 0 1 1 1512.1,337.59Z" style="fill:none;stroke:#F15A60;stroke-width:0.5" />
<path d="M1547,324.83A2.5,2.5 0 1 1 1542,324.83A2.5,2.5 0 1 1 1547,324.83Z" style="fill:none;stroke:#F15A60;stroke-width:0.5" />
<path d="M1581.9,329.59A2.5,2.5 0 1 1 1576.9,329.59A2.5,2.5 0 1 1 1581.9,329.59Z" style="fill:none;stroke:#F15A60;stroke-width:0.5" />
<path d="M1616.8,331.77A2.5,2.5 0 1 1 1611.8,331.77A2.5,2.5 0 1 1 1616.8,331.77Z" style="fill:none;stroke:#F15A60;stroke-width:0.5" />
<path d="M1651.7,299.88A2.5,2.5 0 1 1 1646.7,299.88A2.5,2.5 0 1 1 1651.7,299.88Z" style="fill:none;stroke:#F15A60;stroke-width:0.5" />
<path d="M1686.5,343.63A2.5,2.5 0 1 1 1681.5,343.63A2.5,2.5 0 1 1 1686.5,343.63Z" style="fill:none;stroke:#F15A60;stroke-width:0.5" />
<path d="M114.32,402.02L253.85,392.03L288.73,397.96L323.61,396.13L358.49,403.4L393.38,394.7L428.26,406.5L463.14,399.71" style="fill:none;stroke:#F15A60" />
<path d="M116.82,402.02A2.5,2.5 0 1 1 111.82,402.02A2.5,2.5 0 1 1 116.82,402.02Z" style="fill:none;stroke:#F15A60;stroke-width:0.5" />
<path d="M256.35,392.03A2.5,2.5 0 1 1 251.35,392.03A2.5,2.5 0 1 1 256.35,392.03Z" style="fill:none;stroke:#F15A60;stroke-width:0.5" />
<path d="M291.23,397.96A2.5,2.5 0 1 1 286.23,397.96A2.5,2.5 0 1 1 291.23,397.96Z" style="fill:none;stroke:#F15A60;stroke-width:0.5" />
<path d="M326.11,396.13A2.5,2.5 0 1 1 321.11,396.13A2.5,2.5 0 1 1 326.11,396.13Z" style="fill:none;stroke:#F15A60;stroke-width:0.5" />
<path d="M360.99,403.4A2.5,2.5 0 1 1 355.99,403.4A2.5,2.5 0 1 1 360.99,403.4Z" style="fill:none;stroke:#F15A60;stroke-width:0.5" />
<path d="M395.88,394.7A2.5,2.5 0 1 1 390.88,394.7A2.5,2.5 0 1 1 395.88,394.7Z" style="fill:none;stroke:#F15A60;stroke-width:0.5" />
<path d="M430.76,406.5A2.5,2.5 0 1 1 425.76,406.5A2.5,2.5 0 1 1 430.76,406.5Z" style="fill:none;stroke:#F15A60;stroke-width:0.5" />
<path d="M465.64,399.71A2.5,2.5 0 1 1 460.64,399.71A2.5,2.5 0 1 1 465.64,399.71Z" style="fill:none;stroke:#F15A60;stroke-width:0.5" />
<path d="M218.96,298.61L846.85,297.89L986.38,511.42" style="fill:none;stroke:#F15A60" />
<path d="M221.46,298.61A2.5,2.5 0 1 1 216.46,298.61A2.5,2.5 0 1 1 221.46,298.61Z" style="fill:none;stroke:#F15A60;stroke-width:0.5" />
<path d="M849.35,297.89A2.5,2.5 0 1 1 844.35,297.89A2.5,2.5 0 1 1 849.35,297.89Z" style="fill:none;stroke:#F15A60;stroke-width:0.5" />
<path d="M988.88,511.42A2.5,2.5 0 1 1 983.88,511.42A2.5,2.5 0 1 1 988.88,511.42Z" style="fill:none;stroke:#F15A60;stroke-width:0.5" />
<path d="M358.49,272.15L498.02,274.47L532.91,264.71L567.79,279.32L602.67,270.45L637.56,273.72L672.44,257.78L707.32,279.46L742.2,271.09L811.97,274.57L846.85,275.41L881.73,274.21L916.62,267.17L951.5,262.82L986.38,271.42L1021.3,279.05L1056.1,251.42L1091,278.97L1125.9,275L1160.8,266.82L1195.7,273.02L1230.6,272.61L1265.4,278.79L1300.3,276.92L1370.1,273.28L1405,275.28L1474.7,282.69L1509.6,279.37L1544.5,260.99L1579.4,259.18L1614.3,266.87L1649.2,275.91" style="fill:none;stroke:#F15A60" />
<path d="M360.99,272.15A2.5,2.5 0 1 1 355.99,272.15A2.5,2.5 0 1 1 360.99,272.15Z" style="fill:none;stroke:#F15A60;stroke-width:0.5" />
<path d="M500.52,274.47A2.5,2.5 0 1 1 495.52,274.47A2.5,2.5 0 1 1 500.52,274.47Z" style="fill:none;stroke:#F15A60;stroke-width:0.5" />
<path d="M535.41,264.71A2.5,2.5 0 1 1 530.41,264.71A2.5,2.5 0 1 1 535.41,264.71Z" style="fill:none;stroke:#F15A60;stroke-width:0.5" />
<path d="M570.29,279.32A2.5,2.5 0 1 1 565.29,279.32A2.5,2.5 0 1 1 570.29,279.32Z" style="fill:none;stroke:#F15A60;stroke-width:0.5" />
<path d="M605.17,270.45A2.5,2.5 0 1 1 600.17,270.45A2.5,2.5 0 1 1 605.17,270.45Z" style="fill:none;stroke:#F15A60;stroke-width:0.5" />
<path d="M640.06,273.72A2.5,2.5 0 1 1 635.06,273.72A2.5,2.5 0 1 1 640.06,273.72Z" style="fill:none;stroke:#F15A60;stroke-width:0.5" />
<path d="M674.94,257.78A2.5,2.5 0 1 1 669.94,257.78A2.5,2.5 0 1 1 674.94,257.78Z" style="fill:none;stroke:#F15A60;stroke-width:0.5" />
<path d="M709.82,279.46A2.5,2.5 0 1 1 704.82,279.46A2.5,2.5 0 1 1 709.82,279.46Z" style="fill:none;stroke:#F15A60;stroke-width:0.5" />
<path d="M744.7,271.09A2.5,2.5 0 1 1 739.7,271.09A2.5,2.5 0 1 1 744.7,271.09Z" style="fill:none;stroke:#F15A60;stroke-width:0.5" />
<path d="M814.47,274.57A2.5,2.5 0 1 1 809.47,274.57A2.5,2.5 0 1 1 814.47,274.57Z" style="fill:none;stroke:#F15A60;stroke-width:0.5" />
<path d="M849.35,275.41A2.5,2.5 0 1 1 844.35,275.41A2.5,2.5 0 1 1 849.35,275.41Z" style="fill:none;stroke:#F15A60;stroke-width:0.5" />
<path d="M884.23,274.21A2.5,2.5 0 1 1 879.23,274.21A2.5,2.5 0 1 1 884.23,274.21Z" style="fill:none;stroke:#F15A60;stroke-width:0.5" />
<path d="M919.12,267.17A2.5,2.5 0 1 1 914.12,267.17A2.5,2.5 0 1 1 919.12,267.17Z" style="fill:none;stroke:#F15A60;stroke-width:0.5" />
<path d="M954,262.82A2.5,2.5 0 1 1 949,262.82A2.5,2.5 0 1 1 954,262.82Z" style="fill:none;stroke:#F15A60;stroke-width:0.5" />
<path d="M988.88,271.42A2.5,2.5 0 1 1 983.88,271.42A2.5,2.5 0 1 1 988.88,271.42Z" style="fill:none;stroke:#F15A60;stroke-width:0.5" />
<path d="M1023.8,279.05A2.5,2.5 0 1 1 1018.8,279.05A2.5,2.5 0 1 1 1023.8,279.05Z" style="fill:none;stroke:#F15A60;stroke-width:0.5" />
<path d="M1058.6,251.42A2.5,2.5 0 1 1 1053.6,251.42A2.5,2.5 0 1 1 1058.6,251.42Z" style="fill:none;stroke:#F15A60;stroke-width:0.5" />
<path d="M1093.5,278.97A2.5,2.5 0 1 1 1088.5,278.97A2.5,2.5 0 1 1 1093.5,278.97Z" style="fill:none;stroke:#F15A60;stroke-width:0.5" />
<path d="M1128.4,275A2.5,2.5 0 1 1 1123.4,275A2.5,2.5 0 1 1 1128.4,275Z" style="fill:none;stroke:#F15A60;stroke-width:0.5" />
<path d="M1163.3,266.82A2.5,2.5 0 1 1 1158.3,266.82A2.5,2.5 0 1 1 1163.3,266.82Z" style="fill:none;stroke:#F15A60;stroke-width:0.5" />
<path d="M1198.2,273.02A2.5,2.5 0 1 1 1193.2,273.02A2.5,2.5 0 1 1 1198.2,273.02Z" style="fill:none;stroke:#F15A60;stroke-width:0.5" />
<path d="M1233.1,272.61A2.5,2.5 0 1 1 1228.1,272.61A2.5,2.5 0 1 1 1233.1,272.61Z" style="fill:none;stroke:#F15A60;stroke-width:0.5" />
<path d="M1267.9,278.79A2.5,2.5 0 1 1 1262.9,278.79A2.5,2.5 0 1 1 1267.9,278.79Z" style="fill:none;stroke:#F15A60;stroke-width:0.5" />
<path d="M1302.8,276.92A2.5,2.5 0 1 1 1297.8,276.92A2.5,2.5 0 1 1 1302.8,276.92Z" style="fill:none;stroke:#F15A60;stroke-width:0.5" />
<path d="M1372.6,273.28A2.5,2.5 0 1 1 1367.6,273.28A2.5,2.5 0 1 1 1372.6,273.28Z" style="fill:none;stroke:#F15A60;stroke-width:0.5" />
<path d="M1407.5,275.28A2.5,2.5 0 1 1 1402.5,275.28A2.5,2.5 0 1 1 1407.5,275.28Z" style="fill:none;stroke:#F15A60;stroke-width:0.5" />
<path d="M1477.2,282.69A2.5,2.5 0 1 1 1472.2,282.69A2.5,2.5 0 1 1 1477.2,282.69Z" style="fill:none;stroke:#F15A60;stroke-width:0.5" />
<path d="M1512.1,279.37A2.5,2.5 0 1 1 1507.1,279.37A2.5,2.5 0 1 1 1512.1,279.37Z" style="fill:none;stroke:#F15A60;stroke-width:0.5" />
<path d="M1547,260.99A2.5,2.5 0 1 1 1542,260.99A2.5,2.5 0 1 1 1547,260.99Z" style="fill:none;stroke:#F15A60;stroke-width:0.5" />
<path d="M1581.9,259.18A2.5,2.5 0 1 1 1576.9,259.18A2.5,2.5 0 1 1 1581.9,259.18Z" style="fill:none;stroke:#F15A60;stroke-width:0.5" />
<path d="M1616.8,266.87A2.5,2.5 0 1 1 1611.8,266.87A2.5,2.5 0 1 1 1616.8,266.87Z" style="fill:none;stroke:#F15A60;stroke-width:0.5" />
<path d="M1651.7,275.91A2.5,2.5 0 1 1 1646.7,275.91A2.5,2.5 0 1 1 1651.7,275.91Z" style="fill:none;stroke:#F15A60;stroke-width:0.5" />
<path d="M358.49,344.02L986.38,326.91" style="fill:none;stroke:#F15A60" />
<path d="M360.99,344.02A2.5,2.5 0 1 1 355.99,344.02A2.5,2.5 0 1 1 360.99,344.02Z" style="fill:none;stroke:#F15A60;stroke-width:0.5" />
<path d="M988.88,326.91A2.5,2.5 0 1 1 983.88,326.91A2.5,2.5 0 1 1 988.88,326.91Z" style="fill:none;stroke:#F15A60;stroke-width:0.5" />
<path d="M79.434,347.02L149.2,331.32L218.96,348.75L358.49,341.47L846.85,341.08L951.5,360.07L986.38,341.18L1056.1,345.27L1579.4,345.13" style="fill:none;stroke:#F15A60" />
<path d="M81.934,347.02A2.5,2.5 0 1 1 76.934,347.02A2.5,2.5 0 1 1 81.934,347.02Z" style="fill:none;stroke:#F15A60;stroke-width:0.5" />
<path d="M151.7,331.32A2.5,2.5 0 1 1 146.7,331.32A2.5,2.5 0 1 1 151.7,331.32Z" style="fill:none;stroke:#F15A60;stroke-width:0.5" />
<path d="M221.46,348.75A2.5,2.5 0 1 1 216.46,348.75A2.5,2.5 0 1 1 221.46,348.75Z" style="fill:none;stroke:#F15A60;stroke-width:0.5" />
<path d="M360.99,341.47A2.5,2.5 0 1 1 355.99,341.47A2.5,2.5 0 1 1 360.99,341.47Z" style="fill:none;stroke:#F15A60;stroke-width:0.5" />
<path d="M849.35,341.08A2.5,2.5 0 1 1 844.35,341.08A2.5,2.5 0 1 1 849.35,341.08Z" style="fill:none;stroke:#F15A60;stroke-width:0.5" />
<path d="M954,360.07A2.5,2.5 0 1 1 949,360.07A2.5,2.5 0 1 1 954,360.07Z" style="fill:none;stroke:#F15A60;stroke-width:0.5" />
<path d="M988.88,341.18A2.5,2.5 0 1 1 983.88,341.18A2.5,2.5 0 1 1 988.88,341.18Z" style="fill:none;stroke:#F15A60;stroke-width:0.5" />
<path d="M1058.6,345.27A2.5,2.5 0 1 1 1053.6,345.27A2.5,2.5 0 1 1 1058.6,345.27Z" style="fill:none;stroke:#F15A60;stroke-width:0.5" />
<path d="M1581.9,345.13A2.5,2.5 0 1 1 1576.9,345.13A2.5,2.5 0 1 1 1581.9,345.13Z" style="fill:none;stroke:#F15A60;stroke-width:0.5" />
<path d="M218.96,388.08L358.49,395.99L811.97,373.34L951.5,374.18L1056.1,401.23L1579.4,405.54" style="fill:none;stroke:#F15A60" />
<path d="M221.46,388.08A2.5,2.5 0 1 1 216.46,388.08A2.5,2.5 0 1 1 221.46,388.08Z" style="fill:none;stroke:#F15A60;stroke-width:0.5" />
<path d="M360.99,395.99A2.5,2.5 0 1 1 355.99,395.99A2.5,2.5 0 1 1 360.99,395.99Z" style="fill:none;stroke:#F15A60;stroke-width:0.5" />
<path d="M814.47,373.34A2.5,2.5 0 1 1 809.47,373.34A2.5,2.5 0 1 1 814.47,373.34Z" style="fill:none;stroke:#F15A60;stroke-width:0.5" />
<path d="M954,374.18A2.5,2.5 0 1 1 949,374.18A2.5,2.5 0 1 1 954,374.18Z" style="fill:none;stroke:#F15A60;stroke-width:0.5" />
<path d="M1058.6,401.23A2.5,2.5 0 1 1 1053.6,401.23A2.5,2.5 0 1 1 1058.6,401.23Z" style="fill:none;stroke:#F15A60;stroke-width:0.5" />
<path d="M1581.9,405.54A2.5,2.5 0 1 1 1576.9,405.54A2.5,2.5 0 1 1 1581.9,405.54Z" style="fill:none;stroke:#F15A60;stroke-width:0.5" />
<path d="M323.61,786.57L358.49,859.24L428.26,791.81L498.02,832.55L532.91,849.79L567.79,802.17L602.67,844.76L637.56,765.85L672.44,799.39L707.32,706.79L742.2,794.15L811.97,861.5L846.85,784.38L881.73,829.32L916.62,736.89L951.5,856.3L986.38,850.76L1021.3,788.48L1056.1,809.43L1405,689.85L1474.7,801.42L1509.6,829.5L1544.5,799.41L1579.4,813.71L1614.3,825.7L1649.2,813.81L1684,825.06L1718.9,781.56" style="fill:none;stroke:#F15A60" />
<path d="M326.11,786.57A2.5,2.5 0 1 1 321.11,786.57A2.5,2.5 0 1 1 326.11,786.57Z" style="fill:none;stroke:#F15A60;stroke-width:0.5" />
<path d="M360.99,859.24A2.5,2.5 0 1 1 355.99,859.24A2.5,2.5 0 1 1 360.99,859.24Z" style="fill:none;stroke:#F15A60;stroke-width:0.5" />
<path d="M430.76,791.81A2.5,2.5 0 1 1 425.76,791.81A2.5,2.5 0 1 1 430.76,791.81Z" style="fill:none;stroke:#F15A60;stroke-width:0.5" />
<path d="M500.52,832.55A2.5,2.5 0 1 1 495.52,832.55A2.5,2.5 0 1 1 500.52,832.55Z" style="fill:none;stroke:#F15A60;stroke-width:0.5" />
<path d="M535.41,849.79A2.5,2.5 0 1 1 530.41,849.79A2.5,2.5 0 1 1 535.41,849.79Z" style="fill:none;stroke:#F15A60;stroke-width:0.5" />
<path d="M570.29,802.17A2.5,2.5 0 1 1 565.29,802.17A2.5,2.5 0 1 1 570.29,802.17Z" style="fill:none;stroke:#F15A60;stroke-width:0.5" />
<path d="M605.17,844.76A2.5,2.5 0 1 1 600.17,844.76A2.5,2.5 0 1 1 605.17,844.76Z" style="fill:none;stroke:#F15A60;stroke-width:0.5" />
<path d="M640.06,765.85A2.5,2.5 0 1 1 635.06,765.85A2.5,2.5 0 1 1 640.06,765.85Z" style="fill:none;stroke:#F15A60;stroke-width:0.5" />
<path d="M674.94,799.39A2.5,2.5 0 1 1 669.94,799.39A2.5,2.5 0 1 1 674.94,799.39Z" style="fill:none;stroke:#F15A60;stroke-width:0.5" />
<path d="M709.82,706.79A2.5,2.5 0 1 1 704.82,706.79A2.5,2.5 0 1 1 709.82,706.79Z" style="fill:none;stroke:#F15A60;stroke-width:0.5" />
<path d="M744.7,794.15A2.5,2.5 0 1 1 739.7,794.15A2.5,2.5 0 1 1 744.7,794.15Z" style="fill:none;stroke:#F15A60;stroke-width:0.5" />
<path d="M814.47,861.5A2.5,2.5 0 1 1 809.47,861.5A2.5,2.5 0 1 1 814.47,861.5Z" style="fill:none;stroke:#F15A60;stroke-width:0.5" />
<path d="M849.35,784.38A2.5,2.5 0 1 1 844.35,784.38A2.5,2.5 0 1 1 849.35,784.38Z" style="fill:none;stroke:#F15A60;stroke-width:0.5" />
<path d="M884.23,829.32A2.5,2.5 0 1 1 879.23,829.32A2.5,2.5 0 1 1 884.23,829.32Z" style="fill:none;stroke:#F15A60;stroke-width:0.5" />
<path d="M919.12,736.89A2.5,2.5 0 1 1 914.12,736.89A2.5,2.5 0 1 1 919.12,736.89Z" style="fill:none;stroke:#F15A60;stroke-width:0.5" />
<path d="M954,856.3A2.5,2.5 0 1 1 949,856.3A2.5,2.5 0 1 1 954,856.3Z" style="fill:none;stroke:#F15A60;stroke-width:0.5" />
<path d="M988.88,850.76A2.5,2.5 0 1 1 983.88,850.76A2.5,2.5 0 1 1 988.88,850.76Z" style="fill:none;stroke:#F15A60;stroke-width:0.5" />
<path d="M1023.8,788.48A2.5,2.5 0 1 1 1018.8,788.48A2.5,2.5 0 1 1 1023.8,788.48Z" style="fill:none;stroke:#F15A60;stroke-width:0.5" />
<path d="M1058.6,809.43A2.5,2.5 0 1 1 1053.6,809.43A2.5,2.5 0 1 1 1058.6,809.43Z" style="fill:none;stroke:#F15A60;stroke-width:0.5" />
<path d="M1407.5,689.85A2.5,2.5 0 1 1 1402.5,689.85A2.5,2.5 0 1 1 1407.5,689.85Z" style="fill:none;stroke:#F15A60;stroke-width:0.5" />
<path d="M1477.2,801.42A2.5,2.5 0 1 1 1472.2,801.42A2.5,2.5 0 1 1 1477.2,801.42Z" style="fill:none;stroke:#F15A60;stroke-width:0.5" />
<path d="M1512.1,829.5A2.5,2.5 0 1 1 1507.1,829.5A2.5,2.5 0 1 1 1512.1,829.5Z" style="fill:none;stroke:#F15A60;stroke-width:0.5" />
<path d="M1547,799.41A2.5,2.5 0 1 1 1542,799.41A2.5,2.5 0 1 1 1547,799.41Z" style="fill:none;stroke:#F15A60;stroke-width:0.5" />
<path d="M1581.9,813.71A2.5,2.5 0 1 1 1576.9,813.71A2.5,2.5 0 1 1 1581.9,813.71Z" style="fill:none;stroke:#F15A60;stroke-width:0.5" />
<path d="M1616.8,825.7A2.5,2.5 0 1 1 1611.8,825.7A2.5,2.5 0 1 1 1616.8,825.7Z" style="fill:none;stroke:#F15A60;stroke-width:0.5" />
<path d="M1651.7,813.81A2.5,2.5 0 1 1 1646.7,813.81A2.5,2.5 0 1 1 1651.7,813.81Z" style="fill:none;stroke:#F15A60;stroke-width:0.5" />
<path d="M1686.5,825.06A2.5,2.5 0 1 1 1681.5,825.06A2.5,2.5 0 1 1 1686.5,825.06Z" style="fill:none;stroke:#F15A60;stroke-width:0.5" />
<path d="M1721.4,781.56A2.5,2.5 0 1 1 1716.4,781.56A2.5,2.5 0 1 1 1721.4,781.56Z" style="fill:none;stroke:#F15A60;stroke-width:0.5" />
<path d="M358.49,350.66L986.38,338.51L1579.4,360.89" style="fill:none;stroke:#F15A60" />
<path d="M360.99,350.66A2.5,2.5 0 1 1 355.99,350.66A2.5,2.5 0 1 1 360.99,350.66Z" style="fill:none;stroke:#F15A60;stroke-width:0.5" />
<path d="M988.88,338.51A2.5,2.5 0 1 1 983.88,338.51A2.5,2.5 0 1 1 988.88,338.51Z" style="fill:none;stroke:#F15A60;stroke-width:0.5" />
<path d="M1581.9,360.89A2.5,2.5 0 1 1 1576.9,360.89A2.5,2.5 0 1 1 1581.9,360.89Z" style="fill:none;stroke:#F15A60;stroke-width:0.5" />
<path d="M358.49,356.65L986.38,380.37" style="fill:none;stroke:#F15A60" />
<path d="M360.99,356.65A2.5,2.5 0 1 1 355.99,356.65A2.5,2.5 0 1 1 360.99,356.65Z" style="fill:none;stroke:#F15A60;stroke-width:0.5" />
<path d="M988.88,380.37A2.5,2.5 0 1 1 983.88,380.37A2.5,2.5 0 1 1 988.88,380.37Z" style="fill:none;stroke:#F15A60;stroke-width:0.5" />
<path d="M184.08,527.93L218.96,316.26L253.85,534.87L288.73,536.66L323.61,333.92L358.49,348.14L393.38,532.76L428.26,331.73L463.14,315.65" style="fill:none;stroke:#F15A60" />
<path d="M186.58,527.93A2.5,2.5 0 1 1 181.58,527.93A2.5,2.5 0 1 1 186.58,527.93Z" style="fill:none;stroke:#F15A60;stroke-width:0.5" />
<path d="M221.46,316.26A2.5,2.5 0 1 1 216.46,316.26A2.5,2.5 0 1 1 221.46,316.26Z" style="fill:none;stroke:#F15A60;stroke-width:0.5" />
<path d="M256.35,534.87A2.5,2.5 0 1 1 251.35,534.87A2.5,2.5 0 1 1 256.35,534.87Z" style="fill:none;stroke:#F15A60;stroke-width:0.5" />
<path d="M291.23,536.66A2.5,2.5 0 1 1 286.23,536.66A2.5,2.5 0 1 1 291.23,536.66Z" style="fill:none;stroke:#F15A60;stroke-width:0.5" />
<path d="M326.11,333.92A2.5,2.5 0 1 1 321.11,333.92A2.5,2.5 0 1 1 326.11,333.92Z" style="fill:none;stroke:#F15A60;stroke-width:0.5" />
<path d="M360.99,348.14A2.5,2.5 0 1 1 355.99,348.14A2.5,2.5 0 1 1 360.99,348.14Z" style="fill:none;stroke:#F15A60;stroke-width:0.5" />
<path d="M395.88,532.76A2.5,2.5 0 1 1 390.88,532.76A2.5,2.5 0 1 1 395.88,532.76Z" style="fill:none;stroke:#F15A60;stroke-width:0.5" />
<path d="M430.76,331.73A2.5,2.5 0 1 1 425.76,331.73A2.5,2.5 0 1 1 430.76,331.73Z" style="fill:none;stroke:#F15A60;stroke-width:0.5" />
<path d="M465.64,315.65A2.5,2.5 0 1 1 460.64,315.65A2.5,2.5 0 1 1 465.64,315.65Z" style="fill:none;stroke:#F15A60;stroke-width:0.5" />
<path d="M218.96,639.22L358.49,587.31" style="fill:none;stroke:#F15A60" />
<path d="M221.46,639.22A2.5,2.5 0 1 1 216.46,639.22A2.5,2.5 0 1 1 221.46,639.22Z" style="fill:none;stroke:#F15A60;stroke-width:0.5" />
<path d="M360.99,587.31A2.5,2.5 0 1 1 355.99,587.31A2.5,2.5 0 1 1 360.99,587.31Z" style="fill:none;stroke:#F15A60;stroke-width:0.5" />
<path d="M218.96,361.29L358.49,331.66" style="fill:none;stroke:#F15A60" />
<path d="M221.46,361.29A2.5,2.5 0 1 1 216.46,361.29A2.5,2.5 0 1 1 221.46,361.29Z" style="fill:none;stroke:#F15A60;stroke-width:0.5" />
<path d="M360.99,331.66A2.5,2.5 0 1 1 355.99,331.66A2.5,2.5 0 1 1 360.99,331.66Z" style="fill:none;stroke:#F15A60;stroke-width:0.5" />
<path d="M358.49,309.45L986.38,303.78L1579.4,296.68" style="fill:none;stroke:#F15A60" />
<path d="M360.99,309.45A2.5,2.5 0 1 1 355.99,309.45A2.5,2.5 0 1 1 360.99,309.45Z" style="fill:none;stroke:#F15A60;stroke-width:0.5" />
<path d="M988.88,303.78A2.5,2.5 0 1 1 983.88,303.78A2.5,2.5 0 1 1 988.88,303.78Z" style="fill:none;stroke:#F15A60;stroke-width:0.5" />
<path d="M1581.9,296.68A2.5,2.5 0 1 1 1576.9,296.68A2.5,2.5 0 1 1 1581.9,296.68Z" style="fill:none;stroke:#F15A60;stroke-width:0.5" />
<path d="M358.49,518.08L498.02,647.77L532.91,638.53L602.67,649.35L637.56,631.39L672.44,654.07L707.32,641.68L742.2,637.85L777.09,616.49L811.97,651.59L846.85,613.64L881.73,631.35L916.62,627.4L951.5,624.56L986.38,642.03L1021.3,658.73L1056.1,521.56L1405,586.03L1474.7,651.5L1509.6,629.43L1544.5,631.31L1579.4,655.87L1614.3,606.75L1649.2,638.55L1684,579.97" style="fill:none;stroke:#F15A60" />
<path d="M360.99,518.08A2.5,2.5 0 1 1 355.99,518.08A2.5,2.5 0 1 1 360.99,518.08Z" style="fill:none;stroke:#F15A60;stroke-width:0.5" />
<path d="M500.52,647.77A2.5,2.5 0 1 1 495.52,647.77A2.5,2.5 0 1 1 500.52,647.77Z" style="fill:none;stroke:#F15A60;stroke-width:0.5" />
<path d="M535.41,638.53A2.5,2.5 0 1 1 530.41,638.53A2.5,2.5 0 1 1 535.41,638.53Z" style="fill:none;stroke:#F15A60;stroke-width:0.5" />
<path d="M605.17,649.35A2.5,2.5 0 1 1 600.17,649.35A2.5,2.5 0 1 1 605.17,649.35Z" style="fill:none;stroke:#F15A60;stroke-width:0.5" />
<path d="M640.06,631.39A2.5,2.5 0 1 1 635.06,631.39A2.5,2.5 0 1 1 640.06,631.39Z" style="fill:none;stroke:#F15A60;stroke-width:0.5" />
<path d="M674.94,654.07A2.5,2.5 0 1 1 669.94,654.07A2.5,2.5 0 1 1 674.94,654.07Z" style="fill:none;stroke:#F15A60;stroke-width:0.5" />
<path d="M709.82,641.68A2.5,2.5 0 1 1 704.82,641.68A2.5,2.5 0 1 1 709.82,641.68Z" style="fill:none;stroke:#F15A60;stroke-width:0.5" />
<path d="M744.7,637.85A2.5,2.5 0 1 1 739.7,637.85A2.5,2.5 0 1 1 744.7,637.85Z" style="fill:none;stroke:#F15A60;stroke-width:0.5" />
<path d="M779.59,616.49A2.5,2.5 0 1 1 774.59,616.49A2.5,2.5 0 1 1 779.59,616.49Z" style="fill:none;stroke:#F15A60;stroke-width:0.5" />
<path d="M814.47,651.59A2.5,2.5 0 1 1 809.47,651.59A2.5,2.5 0 1 1 814.47,651.59Z" style="fill:none;stroke:#F15A60;stroke-width:0.5" />
<path d="M849.35,613.64A2.5,2.5 0 1 1 844.35,613.64A2.5,2.5 0 1 1 849.35,613.64Z" style="fill:none;stroke:#F15A60;stroke-width:0.5" />
<path d="M884.23,631.35A2.5,2.5 0 1 1 879.23,631.35A2.5,2.5 0 1 1 884.23,631.35Z" style="fill:none;stroke:#F15A60;stroke-width:0.5" />
<path d="M919.12,627.4A2.5,2.5 0 1 1 914.12,627.4A2.5,2.5 0 1 1 919.12,627.4Z" style="fill:none;stroke:#F15A60;stroke-width:0.5" />
<path d="M954,624.56A2.5,2.5 0 1 1 949,624.56A2.5,2.5 0 1 1 954,624.56Z" style="fill:none;stroke:#F15A60;stroke-width:0.5" />
<path d="M988.88,642.03A2.5,2.5 0 1 1 983.88,642.03A2.5,2.5 0 1 1 988.88,642.03Z" style="fill:none;stroke:#F15A60;stroke-width:0.5" />
<path d="M1023.8,658.73A2.5,2.5 0 1 1 1018.8,658.73A2.5,2.5 0 1 1 1023.8,658.73Z" style="fill:none;stroke:#F15A60;stroke-width:0.5" />
<path d="M1058.6,521.56A2.5,2.5 0 1 1 1053.6,521.56A2.5,2.5 0 1 1 1058.6,521.56Z" style="fill:none;stroke:#F15A60;stroke-width:0.5" />
<path d="M1407.5,586.03A2.5,2.5 0 1 1 1402.5,586.03A2.5,2.5 0 1 1 1407.5,586.03Z" style="fill:none;stroke:#F15A60;stroke-width:0.5" />
<path d="M1477.2,651.5A2.5,2.5 0 1 1 1472.2,651.5A2.5,2.5 0 1 1 1477.2,651.5Z" style="fill:none;stroke:#F15A60;stroke-width:0.5" />
<path d="M1512.1,629.43A2.5,2.5 0 1 1 1507.1,629.43A2.5,2.5 0 1 1 1512.1,629.43Z" style="fill:none;stroke:#F15A60;stroke-width:0.5" />
<path d="M1547,631.31A2.5,2.5 0 1 1 1542,631.31A2.5,2.5 0 1 1 1547,631.31Z" style="fill:none;stroke:#F15A60;stroke-width:0.5" />
<path d="M1581.9,655.87A2.5,2.5 0 1 1 1576.9,655.87A2.5,2.5 0 1 1 1581.9,655.87Z" style="fill:none;stroke:#F15A60;stroke-width:0.5" />
<path d="M1616.8,606.75A2.5,2.5 0 1 1 1611.8,606.75A2.5,2.5 0 1 1 1616.8,606.75Z" style="fill:none;stroke:#F15A60;stroke-width:0.5" />
<path d="M1651.7,638.55A2.5,2.5 0 1 1 1646.7,638.55A2.5,2.5 0 1 1 1651.7,638.55Z" style="fill:none;stroke:#F15A60;stroke-width:0.5" />
<path d="M1686.5,579.97A2.5,2.5 0 1 1 1681.5,579.97A2.5,2.5 0 1 1 1686.5,579.97Z" style="fill:none;stroke:#F15A60;stroke-width:0.5" />
<path d="M218.96,687.57L1056.1,648.11" style="fill:none;stroke:#F15A60" />
<path d="M221.46,687.57A2.5,2.5 0 1 1 216.46,687.57A2.5,2.5 0 1 1 221.46,687.57Z" style="fill:none;stroke:#F15A60;stroke-width:0.5" />
<path d="M1058.6,648.11A2.5,2.5 0 1 1 1053.6,648.11A2.5,2.5 0 1 1 1058.6,648.11Z" style="fill:none;stroke:#F15A60;stroke-width:0.5" />
<path d="M218.96,692.35L358.49,433.56L811.97,449.04L951.5,706.08L1056.1,708.72L1579.4,735.74" style="fill:none;stroke:#F15A60" />
<path d="M221.46,692.35A2.5,2.5 0 1 1 216.46,692.35A2.5,2.5 0 1 1 221.46,692.35Z" style="fill:none;stroke:#F15A60;stroke-width:0.5" />
<path d="M360.99,433.56A2.5,2.5 0 1 1 355.99,433.56A2.5,2.5 0 1 1 360.99,433.56Z" style="fill:none;stroke:#F15A60;stroke-width:0.5" />
<path d="M814.47,449.04A2.5,2.5 0 1 1 809.47,449.04A2.5,2.5 0 1 1 814.47,449.04Z" style="fill:none;stroke:#F15A60;stroke-width:0.5" />
<path d="M954,706.08A2.5,2.5 0 1 1 949,706.08A2.5,2.5 0 1 1 954,706.08Z" style="fill:none;stroke:#F15A60;stroke-width:0.5" />
<path d="M1058.6,708.72A2.5,2.5 0 1 1 1053.6,708.72A2.5,2.5 0 1 1 1058.6,708.72Z" style="fill:none;stroke:#F15A60;stroke-width:0.5" />
<path d="M1581.9,735.74A2.5,2.5 0 1 1 1576.9,735.74A2.5,2.5 0 1 1 1581.9,735.74Z" style="fill:none;stroke:#F15A60;stroke-width:0.5" />
<path d="M358.49,591.77L986.38,729.06L1579.4,619.06" style="fill:none;stroke:#F15A60" />
<path d="M360.99,591.77A2.5,2.5 0 1 1 355.99,591.77A2.5,2.5 0 1 1 360.99,591.77Z" style="fill:none;stroke:#F15A60;stroke-width:0.5" />
<path d="M988.88,729.06A2.5,2.5 0 1 1 983.88,729.06A2.5,2.5 0 1 1 988.88,729.06Z" style="fill:none;stroke:#F15A60;stroke-width:0.5" />
<path d="M1581.9,619.06A2.5,2.5 0 1 1 1576.9,619.06A2.5,2.5 0 1 1 1581.9,619.06Z" style="fill:none;stroke:#F15A60;stroke-width:0.5" />
<path d="M1708,329.56L1728,329.56" style="fill:none;stroke:#F15A60" />
<path d="M1720.5,329.56A2.5,2.5 0 1 1 1715.5,329.56A2.5,2.5 0 1 1 1720.5,329.56Z" style="fill:none;stroke:#F15A60;stroke-width:0.5" />
<text x="1449.1" y="-325.72" transform="scale(1, -1)"
	style="font-family:Times;font-weight:normal;font-style:normal;font-size:12px">periodic-ci-openshift-release-master-ci-4.8-e2e-azure</text>
<path d="M1708,317.78L1728,317.78" style="fill:none;stroke:#F15A60" />
<path d="M1720.5,317.78A2.5,2.5 0 1 1 1715.5,317.78A2.5,2.5 0 1 1 1720.5,317.78Z" style="fill:none;stroke:#F15A60;stroke-width:0.5" />
<text x="1427.7" y="-313.94" transform="scale(1, -1)"
	style="font-family:Times;font-weight:normal;font-style:normal;font-size:12px">periodic-ci-openshift-release-master-ci-4.8-e2e-gcp-serial</text>
<path d="M1708,306.01L1728,306.01" style="fill:none;stroke:#F15A60" />
<path d="M1720.5,306.01A2.5,2.5 0 1 1 1715.5,306.01A2.5,2.5 0 1 1 1720.5,306.01Z" style="fill:none;stroke:#F15A60;stroke-width:0.5" />
<text x="1292.8" y="-302.16" transform="scale(1, -1)"
	style="font-family:Times;font-weight:normal;font-style:normal;font-size:12px">periodic-ci-openshift-release-master-ci-4.8-upgrade-from-stable-4.7-e2e-aws-upgrade</text>
<path d="M1708,294.23L1728,294.23" style="fill:none;stroke:#F15A60" />
<path d="M1720.5,294.23A2.5,2.5 0 1 1 1715.5,294.23A2.5,2.5 0 1 1 1720.5,294.23Z" style="fill:none;stroke:#F15A60;stroke-width:0.5" />
<text x="1444.4" y="-290.38" transform="scale(1, -1)"
	style="font-family:Times;font-weight:normal;font-style:normal;font-size:12px">release-openshift-origin-installer-e2e-gcp-upgrade-4.8</text>
<path d="M1708,282.45L1728,282.45" style="fill:none;stroke:#F15A60" />
<path d="M1720.5,282.45A2.5,2.5 0 1 1 1715.5,282.45A2.5,2.5 0 1 1 1720.5,282.45Z" style="fill:none;stroke:#F15A60;stroke-width:0.5" />
<text x="1399.7" y="-278.61" transform="scale(1, -1)"
	style="font-family:Times;font-weight:normal;font-style:normal;font-size:12px">release-openshift-origin-installer-e2e-aws-upgrade-rollback-4.8</text>
<path d="M1708,270.68L1728,270.68" style="fill:none;stroke:#F15A60" />
<path d="M1720.5,270.68A2.5,2.5 0 1 1 1715.5,270.68A2.5,2.5 0 1 1 1720.5,270.68Z" style="fill:none;stroke:#F15A60;stroke-width:0.5" />
<text x="1426.4" y="-266.83" transform="scale(1, -1)"
	style="font-family:Times;font-weight:normal;font-style:normal;font-size:12px">periodic-ci-openshift-release-master-ci-4.8-e2e-aws-serial</text>
<path d="M1708,258.9L1728,258.9" style="fill:none;stroke:#F15A60" />
<path d="M1720.5,258.9A2.5,2.5 0 1 1 1715.5,258.9A2.5,2.5 0 1 1 1720.5,258.9Z" style="fill:none;stroke:#F15A60;stroke-width:0.5" />
<text x="1270.8" y="-255.05" transform="scale(1, -1)"
	style="font-family:Times;font-weight:normal;font-style:normal;font-size:12px">periodic-ci-openshift-release-master-ci-4.8-upgrade-from-stable-4.7-e2e-aws-ovn-upgrade</text>
<path d="M1708,247.12L1728,247.12" style="fill:none;stroke:#F15A60" />
<path d="M1720.5,247.12A2.5,2.5 0 1 1 1715.5,247.12A2.5,2.5 0 1 1 1720.5,247.12Z" style="fill:none;stroke:#F15A60;stroke-width:0.5" />
<text x="1344.1" y="-243.27" transform="scale(1, -1)"
	style="font-family:Times;font-weight:normal;font-style:normal;font-size:12px">release-openshift-origin-installer-e2e-aws-ovn-upgrade-4.7-stable-to-4.8-ci</text>
<path d="M1708,235.34L1728,235.34" style="fill:none;stroke:#F15A60" />
<path d="M1720.5,235.34A2.5,2.5 0 1 1 1715.5,235.34A2.5,2.5 0 1 1 1720.5,235.34Z" style="fill:none;stroke:#F15A60;stroke-width:0.5" />
<text x="1336.7" y="-231.5" transform="scale(1, -1)"
	style="font-family:Times;font-weight:normal;font-style:normal;font-size:12px">release-openshift-origin-installer-e2e-azure-ovn-upgrade-4.7-stable-to-4.8-ci</text>
<path d="M1708,223.57L1728,223.57" style="fill:none;stroke:#F15A60" />
<path d="M1720.5,223.57A2.5,2.5 0 1 1 1715.5,223.57A2.5,2.5 0 1 1 1720.5,223.57Z" style="fill:none;stroke:#F15A60;stroke-width:0.5" />
<text x="1457.7" y="-219.72" transform="scale(1, -1)"
	style="font-family:Times;font-weight:normal;font-style:normal;font-size:12px">periodic-ci-openshift-release-master-ci-4.8-e2e-gcp</text>
<path d="M1708,211.79L1728,211.79" style="fill:none;stroke:#F15A60" />
<path d="M1720.5,211.79A2.5,2.5 0 1 1 1715.5,211.79A2.5,2.5 0 1 1 1720.5,211.79Z" style="fill:none;stroke:#F15A60;stroke-width:0.5" />
<text x="1406.4" y="-207.94" transform="scale(1, -1)"
	style="font-family:Times;font-weight:normal;font-style:normal;font-size:12px">periodic-ci-openshift-release-master-ci-4.8-e2e-azure-upgrade</text>
<path d="M1708,200.01L1728,200.01" style="fill:none;stroke:#F15A60" />
<path d="M1720.5,200.01A2.5,2.5 0 1 1 1715.5,200.01A2.5,2.5 0 1 1 1720.5,200.01Z" style="fill:none;stroke:#F15A60;stroke-width:0.5" />
<text x="1285.5" y="-196.16" transform="scale(1, -1)"
	style="font-family:Times;font-weight:normal;font-style:normal;font-size:12px">periodic-ci-openshift-release-master-ci-4.8-upgrade-from-stable-4.7-e2e-azure-upgrade</text>
<path d="M1708,188.23L1728,188.23" style="fill:none;stroke:#F15A60" />
<path d="M1720.5,188.23A2.5,2.5 0 1 1 1715.5,188.23A2.5,2.5 0 1 1 1720.5,188.23Z" style="fill:none;stroke:#F15A60;stroke-width:0.5" />
<text x="1366.1" y="-184.39" transform="scale(1, -1)"
	style="font-family:Times;font-weight:normal;font-style:normal;font-size:12px">release-openshift-origin-installer-e2e-aws-upgrade-4.7-stable-to-4.8-ci</text>
<path d="M1708,176.46L1728,176.46" style="fill:none;stroke:#F15A60" />
<path d="M1720.5,176.46A2.5,2.5 0 1 1 1715.5,176.46A2.5,2.5 0 1 1 1720.5,176.46Z" style="fill:none;stroke:#F15A60;stroke-width:0.5" />
<text x="1358.7" y="-172.61" transform="scale(1, -1)"
	style="font-family:Times;font-weight:normal;font-style:normal;font-size:12px">release-openshift-origin-installer-e2e-azure-upgrade-4.7-stable-to-4.8-ci</text>
<path d="M1708,164.68L1728,164.68" style="fill:none;stroke:#F15A60" />
<path d="M1720.5,164.68A2.5,2.5 0 1 1 1715.5,164.68A2.5,2.5 0 1 1 1720.5,164.68Z" style="fill:none;stroke:#F15A60;stroke-width:0.5" />
<text x="1435.7" y="-160.83" transform="scale(1, -1)"
	style="font-family:Times;font-weight:normal;font-style:normal;font-size:12px">release-openshift-origin-installer-e2e-azure-upgrade-4.8</text>
<path d="M1708,152.9L1728,152.9" style="fill:none;stroke:#F15A60" />
<path d="M1720.5,152.9A2.5,2.5 0 1 1 1715.5,152.9A2.5,2.5 0 1 1 1720.5,152.9Z" style="fill:none;stroke:#F15A60;stroke-width:0.5" />
<text x="1413.7" y="-149.05" transform="scale(1, -1)"
	style="font-family:Times;font-weight:normal;font-style:normal;font-size:12px">periodic-ci-openshift-release-master-ci-4.8-e2e-aws-upgrade</text>
<path d="M1708,141.12L1728,141.12" style="fill:none;stroke:#F15A60" />
<path d="M1720.5,141.12A2.5,2.5 0 1 1 1715.5,141.12A2.5,2.5 0 1 1 1720.5,141.12Z" style="fill:none;stroke:#F15A60;stroke-width:0.5" />
<text x="1415.1" y="-137.28" transform="scale(1, -1)"
	style="font-family:Times;font-weight:normal;font-style:normal;font-size:12px">periodic-ci-openshift-release-master-ci-4.8-e2e-gcp-upgrade</text>
<path d="M1708,129.35L1728,129.35" style="fill:none;stroke:#F15A60" />
<path d="M1720.5,129.35A2.5,2.5 0 1 1 1715.5,129.35A2.5,2.5 0 1 1 1720.5,129.35Z" style="fill:none;stroke:#F15A60;stroke-width:0.5" />
<text x="1377.1" y="-125.5" transform="scale(1, -1)"
	style="font-family:Times;font-weight:normal;font-style:normal;font-size:12px">periodic-ci-openshift-release-master-ci-4.8-e2e-aws-sdn-multitenant</text>
<path d="M1708,117.57L1728,117.57" style="fill:none;stroke:#F15A60" />
<path d="M1720.5,117.57A2.5,2.5 0 1 1 1715.5,117.57A2.5,2.5 0 1 1 1720.5,117.57Z" style="fill:none;stroke:#F15A60;stroke-width:0.5" />
<text x="1345.4" y="-113.72" transform="scale(1, -1)"
	style="font-family:Times;font-weight:normal;font-style:normal;font-size:12px">release-openshift-origin-installer-e2e-gcp-ovn-upgrade-4.7-stable-to-4.8-ci</text>
<path d="M1708,105.79L1728,105.79" style="fill:none;stroke:#F15A60" />
<path d="M1720.5,105.79A2.5,2.5 0 1 1 1715.5,105.79A2.5,2.5 0 1 1 1720.5,105.79Z" style="fill:none;stroke:#F15A60;stroke-width:0.5" />
<text x="1456.4" y="-101.95" transform="scale(1, -1)"
	style="font-family:Times;font-weight:normal;font-style:normal;font-size:12px">periodic-ci-openshift-release-master-ci-4.8-e2e-aws</text>
</g>
</svg>
